<svg xmlns="http://www.w3.org/2000/svg" width="1024" height="1024" viewBox="0 0 1024 1024" version="1.1">
	<path d="M 271.246 236.171 C 248.016 238.133, 225.585 248.388, 209.390 264.449 C 197.865 275.877, 190.630 288.550, 186.427 304.664 C 183.934 314.225, 183.954 335.844, 186.465 345.500 C 192.310 367.976, 202.929 383.706, 232.805 414.142 C 238.550 419.996, 242.984 425.217, 242.657 425.746 C 242.330 426.274, 238.806 427.010, 234.825 427.380 C 190.508 431.498, 156.299 461.640, 149.330 502.710 C 146.770 517.796, 149.153 535.003, 155.946 550.489 C 161.756 563.737, 168.410 571.535, 205.018 608 C 247.559 650.375, 257.355 662.142, 263.884 678.707 C 278.200 715.025, 260.529 752.881, 224 764.151 C 214.583 767.056, 197.163 767.304, 187 764.678 C 144.639 753.730, 122.238 708.104, 141.007 671 C 149.040 655.121, 164.328 646.848, 180.190 649.798 C 187.814 651.216, 197.095 655.667, 202.432 660.465 C 207.324 664.864, 208.740 664.903, 209.536 660.662 C 211.186 651.865, 203.027 643.696, 187.258 638.359 C 180.532 636.083, 177.837 635.732, 167 635.722 C 156.490 635.712, 153.204 636.107, 146.363 638.206 C 99.576 652.556, 81.539 702.654, 108.764 742.637 C 122.353 762.593, 148.251 777.407, 178.500 782.526 C 191.572 784.738, 216.243 784.780, 228.500 782.611 C 254.069 778.086, 272.883 769.047, 288.859 753.611 C 298.042 744.738, 303.932 736.582, 308.911 725.844 C 314.447 713.903, 316.339 705.490, 316.298 693 C 316.193 661.489, 302.618 639.019, 258.923 598.028 C 250.440 590.070, 243.178 583.051, 242.785 582.430 C 242.277 581.630, 245.249 581.120, 253.004 580.676 C 274.555 579.443, 292.741 574.173, 309.262 564.373 C 319.093 558.542, 334.883 543.269, 339.857 534.779 C 357.297 505.015, 353.974 473.171, 330.313 443.308 C 323.944 435.269, 310.392 421.693, 277.696 390.598 C 255.628 369.612, 243.687 355.324, 237.498 342.500 C 232.291 331.713, 230.648 324.515, 230.648 312.500 C 230.648 300.502, 232.288 293.300, 237.481 282.500 C 244.750 267.382, 257.058 257.084, 272.093 253.540 C 290.569 249.185, 311.297 254.666, 322.063 266.753 C 324.389 269.364, 327.974 275.100, 330.029 279.500 C 334.705 289.511, 336.804 291.500, 342.693 291.500 C 346.268 291.500, 347.587 290.994, 349.203 289 C 352.322 285.154, 351.324 275.264, 346.999 267.150 C 335.087 244.800, 306.670 233.180, 271.246 236.171 M 777.142 398.329 C 775.841 399.897, 760.435 443.395, 756.451 456.749 L 753.691 465.998 750.096 462.152 C 739.461 450.775, 720.327 453.352, 704.312 468.319 C 695.416 476.633, 689.141 485.133, 682.895 497.333 C 676.531 509.762, 671.720 516.150, 661.053 526.333 C 649.623 537.245, 641.866 540.502, 638.557 535.777 C 635.329 531.169, 637.019 520.943, 645.460 494.014 C 652.285 472.239, 651.473 464.063, 642 459.181 C 636.591 456.394, 630.338 456.711, 623.135 460.138 C 615.153 463.936, 601.586 478.620, 590.080 495.915 C 584.440 504.393, 579.361 512.493, 578.793 513.915 C 578.226 515.337, 577.583 516.029, 577.365 515.453 C 577.147 514.877, 579.929 505.652, 583.548 494.953 C 591.259 472.155, 593.019 465.284, 591.914 462.296 C 590.328 458.010, 583.628 456.544, 580.652 459.832 C 579.741 460.839, 576.736 468.555, 573.975 476.979 C 566.358 500.214, 559.524 511.599, 544.788 525.597 C 533.725 536.106, 526.235 538.676, 523.217 533 C 520.351 527.611, 523.860 506.348, 531.468 483 C 533.350 477.225, 535.001 471.600, 535.137 470.500 C 535.553 467.125, 533.953 463.933, 531.349 462.943 C 527.770 461.582, 527.161 461.723, 524.578 464.510 L 522.252 467.020 519.568 463.501 C 515.217 457.796, 509.821 455.517, 500.862 455.600 C 494.203 455.662, 492.223 456.147, 485.409 459.383 C 471.160 466.150, 456.849 483.180, 448.372 503.456 C 445.227 510.977, 443.584 513.429, 438.113 518.768 C 429.736 526.941, 419.006 534.095, 411.658 536.406 C 404.321 538.714, 395.068 538.261, 391.896 535.439 C 380.887 525.641, 385.878 496.255, 401.932 476.350 C 410.712 465.464, 421.800 462.117, 427.036 468.772 C 428.785 470.996, 429.102 472.560, 428.840 477.662 C 428.664 481.068, 428.812 484.145, 429.168 484.501 C 430.411 485.744, 435.826 482.017, 438.084 478.364 C 441.110 473.467, 441.272 466.210, 438.441 462.325 C 429.712 450.344, 408.043 453.888, 392.013 469.918 C 381.433 480.499, 373.639 493.590, 369.940 507 C 368.011 513.990, 368.197 526.684, 370.308 532.171 C 375.644 546.041, 393.496 551.650, 411.209 545.023 C 419.189 542.037, 431.410 533.816, 438.233 526.842 L 444 520.949 444 524.793 C 444 530.414, 446.658 538.440, 449.728 542.089 C 455.121 548.498, 464.836 549.879, 473.644 545.490 C 483.342 540.657, 495.974 527.098, 505.037 511.792 C 506.896 508.652, 508.542 506.209, 508.695 506.362 C 508.848 506.514, 508.304 510.135, 507.486 514.408 C 504.490 530.070, 506.530 541.703, 512.922 545.404 C 520.313 549.683, 529.876 547.185, 540.633 538.166 C 546.292 533.420, 559.050 519.181, 561.837 514.500 C 562.889 512.732, 562.955 512.849, 562.402 515.500 C 562.058 517.150, 560.927 521.847, 559.888 525.938 C 558.850 530.029, 558 535.697, 558 538.533 C 558 544.880, 559.927 547, 565.693 547 C 569.593 547, 569.788 546.840, 571.493 542.250 C 574.362 534.530, 582.812 518.197, 589.214 508 C 597.725 494.443, 605.342 484.812, 613.807 476.907 C 622.090 469.172, 627.214 466.865, 631.637 468.880 C 634.156 470.028, 634.246 470.341, 633.768 476.289 C 633.494 479.705, 631.365 488.350, 629.038 495.500 C 623.791 511.620, 621.043 523.822, 621.044 531 C 621.044 538.026, 623.842 544.350, 627.872 546.434 C 631.473 548.296, 640.767 548.493, 644.703 546.790 C 652.778 543.296, 666.748 531.135, 673.755 521.500 L 675.937 518.500 675.984 522.500 C 676.228 543.097, 689.288 553.126, 705.734 545.346 C 713.809 541.526, 725.792 529.628, 734.248 517.033 C 738.138 511.240, 741.020 507.625, 740.651 509 C 737.619 520.319, 737.668 534.284, 740.763 540.877 C 742.657 544.912, 748.564 547.946, 754.590 547.978 C 762.755 548.022, 776.619 538.404, 786.679 525.717 L 789.678 521.935 789.645 529.217 C 789.608 537.279, 791.187 541.429, 795.615 544.912 C 799.176 547.713, 807.796 547.761, 813.475 545.012 C 819.564 542.065, 830.458 532.701, 835.796 525.826 L 840.492 519.780 841.261 524.140 C 842.811 532.933, 844.225 536.289, 848.196 540.596 C 857.507 550.698, 875.733 550.453, 893.558 539.989 C 900.728 535.779, 913.600 523.202, 915.574 518.477 C 918.326 511.891, 916.956 512.058, 909.750 519.185 C 897.135 531.664, 885.094 538, 873.997 538 C 868.815 538, 867.633 537.616, 864.596 534.950 C 859.803 530.742, 858.640 526.524, 859.259 515.596 C 860.927 486.144, 886.673 455.519, 899.218 468.064 C 902.235 471.081, 902.273 471.245, 901.654 478.564 C 900.916 487.298, 901.768 487.899, 907.614 482.766 C 913.822 477.315, 915.591 470.154, 912.394 463.417 C 907.735 453.599, 890.607 452.592, 876.163 461.287 C 863.339 469.007, 849.762 486.527, 845.001 501.500 C 842.566 509.158, 839.762 513.336, 830.923 522.473 C 811.481 542.569, 801.524 541.097, 806.084 518.799 C 806.680 515.885, 810.037 503.825, 813.543 492 C 821.827 464.066, 822.002 462.933, 818.468 460.154 C 813.639 456.355, 808.967 457.765, 806.434 463.786 C 805.575 465.829, 802.894 474.477, 800.478 483.005 C 794.139 505.373, 793.631 506.548, 785.896 516.705 C 778.857 525.947, 769.184 534.414, 764.249 535.652 C 756.982 537.476, 753.651 532.100, 754.550 520 C 755.688 504.688, 761.788 482.974, 776.741 441 C 789.560 405.017, 790.304 402.098, 787.464 398.960 C 785.390 396.668, 778.852 396.269, 777.142 398.329 M 825.500 415.925 C 818.635 418.926, 813.883 429.437, 816.537 435.750 C 819.776 443.452, 830.639 440.408, 835.120 430.541 C 837.445 425.425, 837.493 420.815, 835.250 418.114 C 833.255 415.711, 828.455 414.634, 825.500 415.925 M 232.411 446.484 C 208.433 451.701, 193 473.245, 193 501.500 C 193 528.404, 208.253 552.346, 230.205 559.899 C 254.125 568.128, 282.080 557.653, 293.279 536.264 C 298.687 525.935, 300.400 519.005, 300.387 507.500 C 300.367 489.114, 293.867 472.832, 281.675 460.623 C 268.422 447.352, 251.173 442.402, 232.411 446.484 M 493.363 465.867 C 477.616 473.227, 462.033 501.123, 461.677 522.589 C 461.490 533.844, 465.858 538.529, 474.247 536.073 C 486.297 532.546, 512.069 496.246, 513.709 480.493 C 514.338 474.445, 512.310 468.904, 508.569 466.453 C 504.603 463.855, 498.197 463.608, 493.363 465.867 M 725.233 465.981 C 716.119 470.118, 703.871 486.676, 697.939 502.882 C 693.945 513.794, 692.813 526.805, 695.420 531.846 C 699.463 539.663, 707.280 537.759, 719.030 526.095 C 731.846 513.373, 745.255 491.718, 746.658 481.475 C 747.414 475.961, 744.962 468.902, 741.287 466.011 C 737.972 463.404, 730.939 463.391, 725.233 465.981 M 865.139 565.893 C 864.348 566.394, 862.156 574.457, 859.910 585.128 C 854.026 613.075, 850.400 626.642, 847.483 631.619 C 843.348 638.675, 832.194 650, 829.379 650 C 827.208 650, 827 649.586, 827 645.250 C 827 640.965, 830.429 623.906, 834.340 608.735 C 835.657 603.626, 835.657 602.799, 834.333 601.476 C 833.008 600.151, 832.511 600.176, 829.936 601.697 C 827.121 603.360, 826.968 603.343, 824.920 601.145 C 815.140 590.647, 795.234 600.615, 785.269 621 C 776.315 639.319, 777.715 655.543, 788.425 657.552 C 795.567 658.892, 806.579 651.148, 814.454 639.249 C 816 636.912, 817.417 635, 817.602 635 C 817.786 635, 817.667 638.507, 817.336 642.794 C 816.406 654.861, 820.150 659.886, 828.027 657.141 C 833.078 655.380, 836.652 652.286, 842.101 644.958 C 844.947 641.131, 847.358 638, 847.460 638 C 847.562 638, 847.626 640.813, 847.603 644.250 C 847.528 655.319, 851.681 659.610, 860.044 657.105 C 864.635 655.729, 872.327 649.201, 874.651 644.709 C 876.870 640.417, 875.554 640.267, 871.086 644.303 C 867.077 647.925, 861.998 651, 860.025 651 C 859.434 651, 858.478 649.763, 857.901 648.250 C 856.369 644.239, 858.048 634.411, 866.072 600.409 C 869.882 584.261, 873 570.153, 873 569.059 C 873 565.909, 868.179 563.967, 865.139 565.893 M 631.768 571.250 C 630.657 572.110, 629.172 577.954, 627.002 590 C 625.269 599.625, 622.371 614.475, 620.563 623 C 618.755 631.525, 616.687 641.783, 615.969 645.795 C 614.048 656.518, 614.137 656.572, 633.213 656.226 C 649.517 655.931, 653.283 655.007, 653.828 651.172 C 654.151 648.903, 654.037 648.873, 647.078 649.432 C 643.185 649.744, 636.846 650.253, 632.992 650.561 C 627.722 650.983, 625.860 650.797, 625.484 649.811 C 625.209 649.090, 628.138 632.794, 631.992 613.597 C 635.846 594.401, 639 577.177, 639 575.323 C 639 572.623, 638.488 571.756, 636.435 570.975 C 633.289 569.779, 633.699 569.755, 631.768 571.250 M 685.825 598.400 C 680.168 600.421, 674.527 605.437, 669.637 612.799 C 663.791 621.598, 661 630.034, 661 638.903 C 661 650.501, 663.939 655.171, 672.431 657.072 C 682.912 659.418, 694.858 654.311, 707.250 642.188 L 713 636.563 713.004 642.531 C 713.010 652.482, 717.616 657.797, 725.185 656.586 C 732.463 655.423, 743.253 646.494, 749.343 636.598 C 751.016 633.879, 752.545 632.134, 752.740 632.721 C 752.936 633.309, 752.223 637.324, 751.155 641.645 C 750.087 645.965, 748.937 650.720, 748.598 652.210 C 748.063 654.564, 747.039 655.201, 740.824 657.053 C 730.012 660.272, 723.003 663.945, 717.817 669.108 C 710.535 676.358, 710.207 684.154, 717.030 687.785 C 720.804 689.794, 730.595 688.752, 736.519 685.711 C 749.860 678.866, 755.701 667.876, 761.880 638 C 765.780 619.145, 767.845 610.244, 769.231 606.316 C 770.103 603.844, 770.064 602.782, 769.055 601.566 C 767.402 599.574, 763.117 599.532, 762.362 601.500 C 761.519 603.695, 760.174 603.360, 756.347 600 C 751.711 595.930, 746.432 595.945, 738.213 600.051 C 730.343 603.984, 723.530 611.451, 718.048 622.154 C 710.569 636.754, 694.484 649.574, 682.159 650.759 C 675.917 651.359, 672.182 648.464, 671.024 642.129 C 669.744 635.130, 670.256 634.506, 678.826 632.616 C 690.820 629.971, 698.828 625.240, 703.655 617.946 C 708.405 610.767, 706.702 600.358, 700.383 597.955 C 696.899 596.631, 690.207 596.835, 685.825 598.400 M 686.500 604.877 C 684.850 605.905, 682.285 608.043, 680.799 609.627 C 677.775 612.852, 672 624.879, 672 627.953 C 672 629.666, 672.462 629.862, 675.250 629.332 C 685.336 627.415, 694.429 621.939, 697.551 615.901 C 699.308 612.504, 699.449 605.849, 697.800 604.200 C 695.997 602.397, 689.892 602.763, 686.500 604.877 M 741.500 604.837 C 731.970 610.649, 722.461 630.520, 723.196 643.090 C 723.734 652.289, 728.846 652.327, 737.941 643.198 C 747.779 633.322, 755.934 619.759, 755.978 613.200 C 756.004 609.301, 753.736 604.496, 751.455 603.621 C 748.519 602.494, 744.545 602.980, 741.500 604.837 M 807.420 604.885 C 799.971 609.428, 791.880 623.705, 789.282 636.889 C 787.960 643.601, 787.939 645.102, 789.132 647.597 C 790.982 651.470, 794.063 651.739, 799.576 648.509 C 807.674 643.763, 820.772 625.062, 822.518 615.753 C 823.343 611.357, 821.542 605.360, 818.986 603.992 C 816.063 602.428, 810.781 602.836, 807.420 604.885 M 737.409 662.915 C 732.749 665.112, 727.313 668.650, 724.588 671.261 C 720.520 675.159, 719.903 676.263, 720.179 679.147 C 720.456 682.037, 720.912 682.547, 723.482 682.839 C 728.171 683.372, 733.324 681.343, 737.247 677.420 C 741.249 673.418, 746.270 663.730, 745.802 660.915 C 745.532 659.292, 744.652 659.502, 737.409 662.915 M 587.321 668.613 C 584.211 670.147, 581 675.153, 581 678.467 C 581 685.721, 590.983 686.594, 595.423 679.729 C 598.325 675.242, 598.388 672.297, 595.641 669.550 C 592.685 666.595, 591.651 666.478, 587.321 668.613 M 372.764 691.167 C 350.731 694.078, 329.505 721.831, 329.680 747.500 C 329.740 756.225, 331.212 760.735, 335.473 765.241 C 340.328 770.376, 343.661 771.501, 354 771.492 C 362.377 771.485, 364.330 771.124, 370.519 768.436 C 380.650 764.037, 389.407 757.814, 398.250 748.728 C 402.512 744.349, 406 741.015, 406 741.320 C 406 741.624, 405.103 745.614, 404.007 750.187 C 400.484 764.884, 401.915 771, 408.878 771 C 412.419 771, 412.920 770.346, 416.461 761.100 C 426.157 735.779, 444.646 708.254, 455.481 703.009 C 460.278 700.687, 462.721 701.199, 465.967 705.208 C 468.056 707.787, 470.630 706.652, 471.982 702.556 C 474.005 696.425, 469.832 691, 463.093 691 C 457.901 691, 451.543 694.564, 446.431 700.340 C 440.697 706.817, 430.478 722.046, 424.892 732.437 C 422.545 736.802, 420.471 739.914, 420.284 739.352 C 420.097 738.790, 422.680 730.158, 426.024 720.171 C 432.667 700.335, 433.591 694.636, 430.526 692.395 C 427.840 690.431, 423.267 690.633, 422.125 692.766 C 421.605 693.738, 419.291 700.375, 416.982 707.516 C 411.366 724.889, 407.281 732.416, 398.630 741.335 C 384.407 755.999, 369.862 763.664, 357.904 762.799 C 348.419 762.113, 344.019 756.414, 344.006 744.795 C 344 740.138, 344.038 740.084, 347.750 739.448 C 357.585 737.761, 364.834 735.704, 370.540 732.981 C 386.117 725.547, 395.583 710.697, 391.823 699.596 C 389.458 692.614, 383.099 689.801, 372.764 691.167 M 535.541 695.133 C 531.305 728.617, 520.293 753.635, 506.365 761.420 C 500.695 764.588, 496 764.761, 493.405 761.897 C 491.885 760.219, 491.431 757.914, 491.157 750.500 C 490.769 739.999, 491.743 732.631, 496.193 712.403 C 499.759 696.190, 499.563 693.469, 494.737 692.198 C 489.347 690.779, 488.186 691.660, 485.952 698.865 C 479.685 719.081, 475.474 751.800, 477.965 760.930 C 480.349 769.665, 488.863 774.244, 498.649 772.054 C 508.633 769.820, 518.144 761.433, 529.062 745.235 L 535.625 735.500 540.562 734.996 C 547.214 734.317, 555.749 729.823, 563.205 723.077 C 567.260 719.407, 569.163 718.186, 568.776 719.502 C 557.456 758.047, 558.885 771.429, 574.322 771.429 C 581.557 771.429, 587.352 767.897, 598.229 756.858 C 603.029 751.986, 607.104 748, 607.283 748 C 607.462 748, 607.721 749.902, 607.858 752.228 C 608.360 760.729, 613.789 768.488, 620.899 770.864 C 625.661 772.455, 635.700 772.278, 641.698 770.497 C 651.217 767.670, 660.149 761.879, 670.610 751.751 L 676.720 745.835 677.426 751.167 C 678.851 761.936, 683.546 768.164, 692.375 770.995 C 698.182 772.857, 711.303 771.839, 718 769.006 C 730.929 763.537, 749 748.986, 749 744.043 C 749 742.919, 748.737 742, 748.416 742 C 748.095 742, 744.608 744.638, 740.666 747.863 C 731.960 754.986, 726.459 758.196, 718.282 760.925 C 701.717 766.453, 692 760.796, 692 745.626 L 692 740.293 698.868 739.159 C 724.353 734.950, 740.939 721.888, 741.256 705.777 C 741.469 694.975, 735.774 690.269, 723.833 691.379 C 720.079 691.728, 715.093 692.764, 712.754 693.682 C 699.104 699.037, 686.621 713.405, 679.900 731.496 C 674.653 745.619, 651.045 763.044, 637.011 763.153 C 626.667 763.233, 622.524 758.134, 622.669 745.500 C 622.817 732.551, 628.917 717.629, 638.225 707.445 C 646.120 698.806, 653.720 696.629, 658.677 701.586 C 661.028 703.937, 661.214 704.702, 660.732 710.020 C 660.440 713.236, 660.438 716.105, 660.728 716.394 C 661.704 717.370, 666.689 714.123, 668.547 711.301 C 671.378 707.001, 671.148 698.855, 668.103 695.612 C 660.067 687.051, 641.588 690.899, 628.256 703.911 C 621.156 710.841, 615.783 718.830, 611.074 729.457 C 609.092 733.931, 605.821 739.820, 603.805 742.545 C 596.165 752.871, 583.826 763, 578.887 763 C 576.858 763, 575.470 761.315, 574.644 757.848 C 573.486 752.992, 578.128 731.112, 584.401 711.859 C 588.186 700.243, 588.290 699.290, 586.015 697.015 C 583.767 694.767, 578.756 694.327, 577.295 696.250 C 576.772 696.938, 575.543 699.750, 574.563 702.500 C 571.967 709.789, 559.200 721.907, 550.409 725.426 C 543.831 728.059, 540 728.684, 540 727.122 C 540 726.639, 540.701 724.565, 541.559 722.514 C 544.057 716.534, 546.968 703.888, 546.985 698.941 C 547.004 693.071, 545.404 690.998, 540.325 690.317 L 536.220 689.766 535.541 695.133 M 368.500 699.823 C 363.865 702.006, 356.520 709.551, 352.726 716.024 C 349.449 721.616, 345.388 732.722, 346.291 733.624 C 347.332 734.665, 359.809 731.278, 366.544 728.126 C 374.414 724.443, 379.263 720.099, 381.999 714.279 C 384.427 709.114, 384.300 702.871, 381.714 700.286 C 379.359 697.931, 372.989 697.708, 368.500 699.823 M 718.885 699.380 C 713.085 701.452, 709.234 704.741, 704.181 711.936 C 699.281 718.913, 693.158 732.491, 694.366 733.700 C 695.602 734.936, 707.328 731.903, 715 728.363 C 726.783 722.926, 733 715.546, 733 706.994 C 733 699.383, 727.372 696.347, 718.885 699.380" stroke="none" fill="#860636" fill-rule="evenodd"/>
</svg>